<svg xmlns="http://www.w3.org/2000/svg" xmlns:xlink="http://www.w3.org/1999/xlink" width="500" zoomAndPan="magnify" viewBox="0 0 375 374.999991" height="500" preserveAspectRatio="xMidYMid meet" version="1.0"><defs><clipPath id="3b46152ac8"><path d="M 79 91.40625 L 295.613281 91.40625 L 295.613281 284 L 79 284 Z M 79 91.40625 " clip-rule="nonzero"/></clipPath><clipPath id="4674770bb5"><path d="M 198.484375 153.804688 L 145.382812 153.804688 L 145.382812 207.675781 C 145.867188 207.949219 146.34375 208.226562 146.828125 208.5 C 164.1875 190.117188 181.550781 171.730469 198.484375 153.804688 M 207.761719 224.515625 L 295.613281 224.515625 C 292.707031 227.285156 290.757812 229.1875 288.765625 231.039062 C 271.097656 247.488281 253.492188 264 235.664062 280.265625 C 233.695312 282.066406 230.429688 283.332031 227.761719 283.339844 C 179.828125 283.570312 131.890625 283.570312 83.957031 283.601562 C 82.585938 283.601562 81.214844 283.386719 79.460938 283.234375 C 79.460938 278.042969 79.460938 273.125 79.460938 268.207031 C 79.460938 231.652344 79.507812 195.097656 79.386719 158.542969 C 79.378906 154.570312 80.386719 151.652344 83.238281 148.675781 C 100.296875 130.859375 117.050781 112.75 134.101562 94.921875 C 135.832031 93.121094 138.847656 91.574219 141.269531 91.558594 C 181.574219 91.355469 221.871094 91.410156 262.175781 91.421875 C 263.394531 91.421875 264.613281 91.609375 266.304688 91.75 C 266.417969 93.597656 266.613281 95.289062 266.613281 96.984375 C 266.636719 117.75 266.738281 138.507812 266.484375 159.265625 C 266.453125 161.917969 265.1875 165.207031 263.351562 167.085938 C 246.097656 184.71875 228.625 202.140625 211.117188 219.515625 C 209.800781 220.816406 207.695312 221.324219 205.953125 222.199219 C 206.554688 222.96875 207.160156 223.742188 207.761719 224.511719 " clip-rule="nonzero"/></clipPath></defs><rect x="-37.5" width="450" fill="#ffffff" y="-37.499999" height="449.999989" fill-opacity="1"/><rect x="-37.5" width="450" fill="#ffffff" y="-37.499999" height="449.999989" fill-opacity="1"/><g clip-path="url(#3b46152ac8)"><g clip-path="url(#4674770bb5)"><path fill="#c6ff41" d="M 79.386719 91.40625 L 295.613281 91.40625 L 295.613281 283.480469 L 79.386719 283.480469 Z M 79.386719 91.40625 " fill-opacity="1" fill-rule="nonzero"/></g></g></svg>